<svg id="Calque_1" data-name="Calque 1" xmlns="http://www.w3.org/2000/svg" viewBox="0 0 84.04 44.38"><defs><style>.cls-1,.cls-2,.cls-3{fill:#1d1d1b;}.cls-2{font-size:20px;font-family:Krungthep;}.cls-3,.cls-5,.cls-6{stroke:#1d1d1b;stroke-miterlimit:10;stroke-width:0.25px;}.cls-4,.cls-6{fill:#fff;}.cls-5{fill:none;}.cls-5,.cls-6{stroke-linecap:round;}</style></defs><rect class="cls-1" x="7.61" y="23.44" width="3.07" height="1.62" rx="0.81" transform="translate(1.02 -0.36) rotate(2.39)"/><path class="cls-1" d="M9.72,34.68l-1.59-.1a.82.82,0,0,1-.84-.79h0A.81.81,0,0,1,8.08,33l1.59.1a.81.81,0,0,1,.83.78h0A.8.8,0,0,1,9.72,34.68Z"/><polyline class="cls-1" points="16.41 9.17 21.41 15 24.76 15 18.09 7.5 24.76 0 21.8 0 16.41 6.13 15.15 7.62"/><polyline class="cls-1" points="14.74 6.13 14.74 0 11.41 0 11.41 15 14.74 15 14.74 9.17"/><path class="cls-1" d="M27.35,1.67V0h3.33V1.67Zm0,13.33V3.33h3.33V15Z"/><path class="cls-1" d="M44,15H40.7V6.67A1.69,1.69,0,0,0,39,5a1.59,1.59,0,0,0-1.18.49,1.61,1.61,0,0,0-.5,1.18V15H34V3.33h3.32V5a2.1,2.1,0,0,1,.52-1.26A1.61,1.61,0,0,1,39,3.33H40.7a2.81,2.81,0,0,1,2.5,1.18,2.47,2.47,0,0,1,1-.89,3.57,3.57,0,0,1,1.49-.29h1.65a3.24,3.24,0,0,1,2.36,1,3.2,3.2,0,0,1,1,2.36V15H47.35V6.67a1.59,1.59,0,0,0-.49-1.17A1.58,1.58,0,0,0,45.7,5,1.67,1.67,0,0,0,44,6.67Z"/><path class="cls-1" d="M54,1.67V0h3.32V1.67ZM54,15V3.33h3.32V15Z"/><text class="cls-2" transform="translate(45.71 36.24)">Hsu</text><path class="cls-3" d="M23.79,29.5c-.19,1.65-12.93,2-21.16.52C.29,29.62-.18,28.71.28,28s5.6-1,11.36-.75C17.68,27.51,23.93,28.28,23.79,29.5Z"/><path class="cls-1" d="M6.42,30.54l7.49.34s-.37,8.62-.37,8.84"/><polyline class="cls-1" points="6.62 27.2 13.98 27.52 14.36 18.75"/><polyline class="cls-1" points="18.25 29.81 22.83 30.01 22.6 35.42"/><polyline class="cls-1" points="18.28 28.64 22.86 28.69 22.94 23.28"/><path class="cls-4" d="M21.65,29.36c-.16,1.42-11.14,1.68-18.23.45-2-.35-2.42-1.13-2-1.73s4.82-.85,9.78-.65C16.39,27.64,21.77,28.31,21.65,29.36Z"/><path class="cls-1" d="M2.28,27.84v.47a4.53,4.53,0,0,1-.71,0C1.48,28.2,2.28,27.84,2.28,27.84Z"/><path class="cls-1" d="M2.29,28.37l0,.39a7.3,7.3,0,0,1-.73,0c-.1,0-.08-.38,0-.38Z"/><path class="cls-1" d="M2.27,28.81l0,.42s-.88-.44-.68-.43Z"/><path class="cls-3" d="M22.26,29.36c0,.25-1.89.29-3.09.08-.34-.06-.41-.19-.34-.29A4.14,4.14,0,0,1,20.49,29C21.37,29.07,22.28,29.19,22.26,29.36Z"/><path class="cls-5" d="M2.89,29.26a55.79,55.79,0,0,0,10.89,1c1.79,0,3.13-.11,4.73-.23"/><path class="cls-6" d="M3,27.93a60.87,60.87,0,0,1,15.6.51"/><path class="cls-5" d="M23.81,29.44c10,2,19.42,3,20.8-.06,1.21-2.71-4.69-6.41-3.37-9.27,1.8-3.9,16-4.17,25.83-.42a14.16,14.16,0,0,0,7.36,1.2,14.74,14.74,0,0,0,8.2-4.32"/><line class="cls-5" x1="14.03" y1="39.65" x2="16.76" y2="39.92"/><line class="cls-5" x1="14.91" y1="18.97" x2="17.84" y2="18.94"/><line class="cls-5" x1="17.89" y1="40.02" x2="20.62" y2="40.29"/><line class="cls-5" x1="21.81" y1="40.41" x2="24.54" y2="40.68"/><line class="cls-5" x1="18.84" y1="18.96" x2="21.77" y2="18.93"/><line class="cls-5" x1="22.87" y1="18.93" x2="25.8" y2="18.9"/><path class="cls-4" d="M8.06,30.91l4.7.21s-.23,4.16-.23,5.54"/><polyline class="cls-4" points="8.15 26.89 13.02 27.1 13.27 21.31"/><polyline class="cls-4" points="19.74 27.76 22.36 28.44 22.43 24.66"/><polygon class="cls-4" points="8.07 32.95 7.96 34.57 8.16 34.59 8.27 32.96 8.07 32.95"/><polyline class="cls-4" points="19.7 30.83 22.34 30.42 22.16 34"/><polygon class="cls-4" points="8.47 23.41 8.4 25.03 8.6 25.04 8.67 23.42 8.47 23.41"/></svg>